# Wavefront OBJ file automatically generated by Tiled2Unity

# Vertices (Count = 600)
v -124 -4 0
v -128 -4 0
v -128 0 0
v -124 0 0
v -132 -4 0
v -132 0 0
v -136 -4 0
v -136 0 0
v -140 -4 0
v -140 0 0
v -144 -4 0
v -144 0 0
v -148 -4 0
v -148 0 0
v -152 -4 0
v -152 0 0
v -156 -4 0
v -156 0 0
v -160 -4 0
v -160 0 0
v -164 -4 0
v -164 0 0
v -168 -4 0
v -168 0 0
v -172 -4 0
v -172 0 0
v -176 -4 0
v -176 0 0
v -180 -4 0
v -180 0 0
v -184 -4 0
v -184 0 0
v -188 -4 0
v -188 0 0
v -192 -4 0
v -192 0 0
v -196 -4 0
v -196 0 0
v -200 -4 0
v -200 0 0
v -204 -4 0
v -204 0 0
v -208 -4 0
v -208 0 0
v -212 -4 0
v -212 0 0
v -216 -4 0
v -216 0 0
v -220 -4 0
v -220 0 0
v -224 -4 0
v -224 0 0
v -228 -4 0
v -228 0 0
v -232 -4 0
v -232 0 0
v -236 -4 0
v -236 0 0
v -240 -4 0
v -240 0 0
v -244 -4 0
v -244 0 0
v -248 -4 0
v -248 0 0
v -252 -4 0
v -252 0 0
v -256 -4 0
v -256 0 0
v -260 -4 0
v -260 0 0
v -264 -4 0
v -264 0 0
v -268 -4 0
v -268 0 0
v -124 -8 0
v -128 -8 0
v -240 -8 0
v -244 -8 0
v -248 -8 0
v -252 -8 0
v -264 -8 0
v -268 -8 0
v -556 -8 0
v -560 -8 0
v -560 -4 0
v -556 -4 0
v -124 -12 0
v -128 -12 0
v -140 -12 0
v -144 -12 0
v -144 -8 0
v -140 -8 0
v -176 -12 0
v -180 -12 0
v -180 -8 0
v -176 -8 0
v -236 -12 0
v -240 -12 0
v -236 -8 0
v -252 -12 0
v -256 -12 0
v -256 -8 0
v -264 -12 0
v -268 -12 0
v -356 -12 0
v -360 -12 0
v -360 -8 0
v -356 -8 0
v -364 -12 0
v -364 -8 0
v -124 -16 0
v -128 -16 0
v -136 -16 0
v -140 -16 0
v -136 -12 0
v -144 -16 0
v -172 -16 0
v -176 -16 0
v -172 -12 0
v -180 -16 0
v -232 -16 0
v -236 -16 0
v -232 -12 0
v -256 -16 0
v -260 -16 0
v -260 -12 0
v -264 -16 0
v -268 -16 0
v -352 -16 0
v -356 -16 0
v -352 -12 0
v -364 -16 0
v -368 -16 0
v -368 -12 0
v -124 -20 0
v -128 -20 0
v -132 -20 0
v -136 -20 0
v -132 -16 0
v -140 -20 0
v -144 -20 0
v -156 -20 0
v -160 -20 0
v -160 -16 0
v -156 -16 0
v -168 -20 0
v -172 -20 0
v -168 -16 0
v -176 -20 0
v -180 -20 0
v -200 -20 0
v -204 -20 0
v -204 -16 0
v -200 -16 0
v -208 -20 0
v -208 -16 0
v -212 -20 0
v -212 -16 0
v -216 -20 0
v -216 -16 0
v -220 -20 0
v -220 -16 0
v -224 -20 0
v -224 -16 0
v -256 -20 0
v -260 -20 0
v -264 -20 0
v -268 -20 0
v -352 -20 0
v -356 -20 0
v -364 -20 0
v -368 -20 0
v -568 -20 0
v -572 -20 0
v -572 -16 0
v -568 -16 0
v -124 -24 0
v -128 -24 0
v -140 -24 0
v -144 -24 0
v -152 -24 0
v -156 -24 0
v -152 -20 0
v -160 -24 0
v -164 -24 0
v -164 -20 0
v -176 -24 0
v -180 -24 0
v -252 -24 0
v -256 -24 0
v -252 -20 0
v -264 -24 0
v -268 -24 0
v -356 -24 0
v -360 -24 0
v -360 -20 0
v -364 -24 0
v -124 -28 0
v -128 -28 0
v -140 -28 0
v -144 -28 0
v -156 -28 0
v -160 -28 0
v -176 -28 0
v -180 -28 0
v -248 -28 0
v -252 -28 0
v -248 -24 0
v -264 -28 0
v -268 -28 0
v -124 -32 0
v -128 -32 0
v -140 -32 0
v -144 -32 0
v -176 -32 0
v -180 -32 0
v -200 -32 0
v -204 -32 0
v -204 -28 0
v -200 -28 0
v -208 -32 0
v -208 -28 0
v -212 -32 0
v -212 -28 0
v -216 -32 0
v -216 -28 0
v -220 -32 0
v -220 -28 0
v -224 -32 0
v -224 -28 0
v -244 -32 0
v -248 -32 0
v -244 -28 0
v -264 -32 0
v -268 -32 0
v -580 -32 0
v -584 -32 0
v -584 -28 0
v -580 -28 0
v -124 -36 0
v -128 -36 0
v -140 -36 0
v -144 -36 0
v -176 -36 0
v -180 -36 0
v -240 -36 0
v -244 -36 0
v -240 -32 0
v -264 -36 0
v -268 -36 0
v -344 -36 0
v -348 -36 0
v -348 -32 0
v -344 -32 0
v -352 -36 0
v -352 -32 0
v -356 -36 0
v -356 -32 0
v -360 -36 0
v -360 -32 0
v -364 -36 0
v -364 -32 0
v -368 -36 0
v -368 -32 0
v -372 -36 0
v -372 -32 0
v -376 -36 0
v -376 -32 0
v -124 -40 0
v -128 -40 0
v -132 -40 0
v -136 -40 0
v -136 -36 0
v -132 -36 0
v -140 -40 0
v -144 -40 0
v -148 -40 0
v -148 -36 0
v -152 -40 0
v -152 -36 0
v -168 -40 0
v -172 -40 0
v -172 -36 0
v -168 -36 0
v -176 -40 0
v -180 -40 0
v -184 -40 0
v -184 -36 0
v -188 -40 0
v -188 -36 0
v -236 -40 0
v -240 -40 0
v -236 -36 0
v -264 -40 0
v -268 -40 0
v -344 -40 0
v -348 -40 0
v -352 -40 0
v -356 -40 0
v -360 -40 0
v -364 -40 0
v -368 -40 0
v -372 -40 0
v -376 -40 0
v -456 -40 0
v -460 -40 0
v -460 -36 0
v -456 -36 0
v -464 -40 0
v -464 -36 0
v -124 -44 0
v -128 -44 0
v -232 -44 0
v -236 -44 0
v -232 -40 0
v -240 -44 0
v -244 -44 0
v -244 -40 0
v -248 -44 0
v -248 -40 0
v -252 -44 0
v -252 -40 0
v -256 -44 0
v -256 -40 0
v -260 -44 0
v -260 -40 0
v -264 -44 0
v -268 -44 0
v -452 -44 0
v -456 -44 0
v -452 -40 0
v -460 -44 0
v -464 -44 0
v -468 -44 0
v -468 -40 0
v -592 -44 0
v -596 -44 0
v -596 -40 0
v -592 -40 0
v -48 -48 0
v -52 -48 0
v -52 -44 0
v -48 -44 0
v -56 -48 0
v -56 -44 0
v -60 -48 0
v -60 -44 0
v -64 -48 0
v -64 -44 0
v -68 -48 0
v -68 -44 0
v -124 -48 0
v -128 -48 0
v -132 -48 0
v -132 -44 0
v -136 -48 0
v -136 -44 0
v -140 -48 0
v -140 -44 0
v -144 -48 0
v -144 -44 0
v -148 -48 0
v -148 -44 0
v -152 -48 0
v -152 -44 0
v -156 -48 0
v -156 -44 0
v -160 -48 0
v -160 -44 0
v -164 -48 0
v -164 -44 0
v -168 -48 0
v -168 -44 0
v -172 -48 0
v -172 -44 0
v -176 -48 0
v -176 -44 0
v -180 -48 0
v -180 -44 0
v -184 -48 0
v -184 -44 0
v -188 -48 0
v -188 -44 0
v -192 -48 0
v -192 -44 0
v -196 -48 0
v -196 -44 0
v -200 -48 0
v -200 -44 0
v -204 -48 0
v -204 -44 0
v -208 -48 0
v -208 -44 0
v -212 -48 0
v -212 -44 0
v -216 -48 0
v -216 -44 0
v -220 -48 0
v -220 -44 0
v -224 -48 0
v -224 -44 0
v -228 -48 0
v -228 -44 0
v -232 -48 0
v -236 -48 0
v -240 -48 0
v -244 -48 0
v -248 -48 0
v -252 -48 0
v -256 -48 0
v -260 -48 0
v -264 -48 0
v -268 -48 0
v -448 -48 0
v -452 -48 0
v -448 -44 0
v -456 -48 0
v -460 -48 0
v -464 -48 0
v -468 -48 0
v -472 -48 0
v -472 -44 0
v -48 -52 0
v -52 -52 0
v -56 -52 0
v -60 -52 0
v -64 -52 0
v -68 -52 0
v -356 -52 0
v -360 -52 0
v -360 -48 0
v -356 -48 0
v -364 -52 0
v -364 -48 0
v -444 -52 0
v -448 -52 0
v -444 -48 0
v -452 -52 0
v -456 -52 0
v -460 -52 0
v -464 -52 0
v -468 -52 0
v -472 -52 0
v -476 -52 0
v -476 -48 0
v -48 -56 0
v -52 -56 0
v -56 -56 0
v -60 -56 0
v -64 -56 0
v -68 -56 0
v -352 -56 0
v -356 -56 0
v -352 -52 0
v -364 -56 0
v -368 -56 0
v -368 -52 0
v -440 -56 0
v -444 -56 0
v -440 -52 0
v -448 -56 0
v -452 -56 0
v -456 -56 0
v -460 -56 0
v -464 -56 0
v -468 -56 0
v -472 -56 0
v -476 -56 0
v -480 -56 0
v -480 -52 0
v -604 -56 0
v -608 -56 0
v -608 -52 0
v -604 -52 0
v -352 -60 0
v -356 -60 0
v -364 -60 0
v -368 -60 0
v -436 -60 0
v -440 -60 0
v -436 -56 0
v -444 -60 0
v -448 -60 0
v -452 -60 0
v -456 -60 0
v -460 -60 0
v -464 -60 0
v -468 -60 0
v -472 -60 0
v -476 -60 0
v -480 -60 0
v -484 -60 0
v -484 -56 0
v -240 -64 0
v -244 -64 0
v -244 -60 0
v -240 -60 0
v -356 -64 0
v -360 -64 0
v -360 -60 0
v -364 -64 0
v -432 -64 0
v -436 -64 0
v -432 -60 0
v -440 -64 0
v -444 -64 0
v -448 -64 0
v -452 -64 0
v -456 -64 0
v -460 -64 0
v -464 -64 0
v -468 -64 0
v -472 -64 0
v -476 -64 0
v -480 -64 0
v -484 -64 0
v -488 -64 0
v -488 -60 0
v -236 -68 0
v -240 -68 0
v -236 -64 0
v -432 -68 0
v -436 -68 0
v -440 -68 0
v -444 -68 0
v -448 -68 0
v -452 -68 0
v -456 -68 0
v -460 -68 0
v -464 -68 0
v -468 -68 0
v -472 -68 0
v -476 -68 0
v -480 -68 0
v -484 -68 0
v -488 -68 0
v -616 -68 0
v -620 -68 0
v -620 -64 0
v -616 -64 0
v -232 -72 0
v -236 -72 0
v -232 -68 0
v -204 -76 0
v -208 -76 0
v -208 -72 0
v -204 -72 0
v -228 -76 0
v -232 -76 0
v -228 -72 0
v -208 -80 0
v -212 -80 0
v -212 -76 0
v -224 -80 0
v -228 -80 0
v -224 -76 0
v -628 -80 0
v -632 -80 0
v -632 -76 0
v -628 -76 0
v -212 -84 0
v -216 -84 0
v -216 -80 0
v -220 -84 0
v -224 -84 0
v -220 -80 0
v -216 -88 0
v -220 -88 0
v -348 -88 0
v -352 -88 0
v -352 -84 0
v -348 -84 0
v -356 -88 0
v -356 -84 0
v -360 -88 0
v -360 -84 0
v -364 -88 0
v -364 -84 0
v -368 -88 0
v -368 -84 0
v -372 -88 0
v -372 -84 0
v -348 -92 0
v -352 -92 0
v -356 -92 0
v -360 -92 0
v -364 -92 0
v -368 -92 0
v -372 -92 0
v -640 -92 0
v -644 -92 0
v -644 -88 0
v -640 -88 0
v -348 -96 0
v -352 -96 0
v -356 -96 0
v -360 -96 0
v -364 -96 0
v -368 -96 0
v -372 -96 0

# Texture cooridinates (Count = 8)
vt 0.1250153 0.7500305
vt 0.2499847 0.7500305
vt 0.2499847 0.9999695
vt 0.1250153 0.9999695
vt 0.1250153 0.2500305
vt 0.2499847 0.2500305
vt 0.2499847 0.4999695
vt 0.1250153 0.4999695

# Normal
vn 0 0 -1

# Groups (Count = 1)

g mesh_0001
f 1/1/1 2/2/1 3/3/1 4/4/1
f 2/1/1 5/2/1 6/3/1 3/4/1
f 5/1/1 7/2/1 8/3/1 6/4/1
f 7/1/1 9/2/1 10/3/1 8/4/1
f 9/1/1 11/2/1 12/3/1 10/4/1
f 11/1/1 13/2/1 14/3/1 12/4/1
f 13/1/1 15/2/1 16/3/1 14/4/1
f 15/1/1 17/2/1 18/3/1 16/4/1
f 17/1/1 19/2/1 20/3/1 18/4/1
f 19/1/1 21/2/1 22/3/1 20/4/1
f 21/1/1 23/2/1 24/3/1 22/4/1
f 23/1/1 25/2/1 26/3/1 24/4/1
f 25/1/1 27/2/1 28/3/1 26/4/1
f 27/1/1 29/2/1 30/3/1 28/4/1
f 29/1/1 31/2/1 32/3/1 30/4/1
f 31/1/1 33/2/1 34/3/1 32/4/1
f 33/1/1 35/2/1 36/3/1 34/4/1
f 35/1/1 37/2/1 38/3/1 36/4/1
f 37/1/1 39/2/1 40/3/1 38/4/1
f 39/1/1 41/2/1 42/3/1 40/4/1
f 41/1/1 43/2/1 44/3/1 42/4/1
f 43/1/1 45/2/1 46/3/1 44/4/1
f 45/1/1 47/2/1 48/3/1 46/4/1
f 47/1/1 49/2/1 50/3/1 48/4/1
f 49/1/1 51/2/1 52/3/1 50/4/1
f 51/1/1 53/2/1 54/3/1 52/4/1
f 53/1/1 55/2/1 56/3/1 54/4/1
f 55/1/1 57/2/1 58/3/1 56/4/1
f 57/1/1 59/2/1 60/3/1 58/4/1
f 59/1/1 61/2/1 62/3/1 60/4/1
f 61/1/1 63/2/1 64/3/1 62/4/1
f 63/1/1 65/2/1 66/3/1 64/4/1
f 65/1/1 67/2/1 68/3/1 66/4/1
f 67/1/1 69/2/1 70/3/1 68/4/1
f 69/1/1 71/2/1 72/3/1 70/4/1
f 71/1/1 73/2/1 74/3/1 72/4/1
f 75/1/1 76/2/1 2/3/1 1/4/1
f 77/5/1 78/6/1 61/7/1 59/8/1
f 78/5/1 79/6/1 63/7/1 61/8/1
f 79/5/1 80/6/1 65/7/1 63/8/1
f 81/1/1 82/2/1 73/3/1 71/4/1
f 83/5/1 84/6/1 85/7/1 86/8/1
f 87/1/1 88/2/1 76/3/1 75/4/1
f 89/5/1 90/6/1 91/7/1 92/8/1
f 93/1/1 94/2/1 95/3/1 96/4/1
f 97/5/1 98/6/1 77/7/1 99/8/1
f 100/5/1 101/6/1 102/7/1 80/8/1
f 103/1/1 104/2/1 82/3/1 81/4/1
f 105/1/1 106/2/1 107/3/1 108/4/1
f 106/1/1 109/2/1 110/3/1 107/4/1
f 111/1/1 112/2/1 88/3/1 87/4/1
f 113/5/1 114/6/1 89/7/1 115/8/1
f 114/5/1 116/6/1 90/7/1 89/8/1
f 117/1/1 118/2/1 93/3/1 119/4/1
f 118/1/1 120/2/1 94/3/1 93/4/1
f 121/5/1 122/6/1 97/7/1 123/8/1
f 124/5/1 125/6/1 126/7/1 101/8/1
f 127/1/1 128/2/1 104/3/1 103/4/1
f 129/1/1 130/2/1 105/3/1 131/4/1
f 132/1/1 133/2/1 134/3/1 109/4/1
f 135/1/1 136/2/1 112/3/1 111/4/1
f 137/5/1 138/6/1 113/7/1 139/8/1
f 138/5/1 140/6/1 114/7/1 113/8/1
f 140/5/1 141/6/1 116/7/1 114/8/1
f 142/1/1 143/2/1 144/3/1 145/4/1
f 146/1/1 147/2/1 117/3/1 148/4/1
f 147/1/1 149/2/1 118/3/1 117/4/1
f 149/1/1 150/2/1 120/3/1 118/4/1
f 151/5/1 152/6/1 153/7/1 154/8/1
f 152/5/1 155/6/1 156/7/1 153/8/1
f 155/5/1 157/6/1 158/7/1 156/8/1
f 157/5/1 159/6/1 160/7/1 158/8/1
f 159/5/1 161/6/1 162/7/1 160/8/1
f 161/5/1 163/6/1 164/7/1 162/8/1
f 165/5/1 166/6/1 125/7/1 124/8/1
f 167/1/1 168/2/1 128/3/1 127/4/1
f 169/1/1 170/2/1 130/3/1 129/4/1
f 171/1/1 172/2/1 133/3/1 132/4/1
f 173/5/1 174/6/1 175/7/1 176/8/1
f 177/1/1 178/2/1 136/3/1 135/4/1
f 179/5/1 180/6/1 141/7/1 140/8/1
f 181/1/1 182/2/1 142/3/1 183/4/1
f 182/1/1 184/2/1 143/3/1 142/4/1
f 184/1/1 185/2/1 186/3/1 143/4/1
f 187/1/1 188/2/1 150/3/1 149/4/1
f 189/5/1 190/6/1 165/7/1 191/8/1
f 192/1/1 193/2/1 168/3/1 167/4/1
f 194/1/1 195/2/1 196/3/1 170/4/1
f 195/1/1 197/2/1 171/3/1 196/4/1
f 198/1/1 199/2/1 178/3/1 177/4/1
f 200/5/1 201/6/1 180/7/1 179/8/1
f 202/1/1 203/2/1 184/3/1 182/4/1
f 204/1/1 205/2/1 188/3/1 187/4/1
f 206/5/1 207/6/1 189/7/1 208/8/1
f 209/1/1 210/2/1 193/3/1 192/4/1
f 211/1/1 212/2/1 199/3/1 198/4/1
f 213/5/1 214/6/1 201/7/1 200/8/1
f 215/1/1 216/2/1 205/3/1 204/4/1
f 217/5/1 218/6/1 219/7/1 220/8/1
f 218/5/1 221/6/1 222/7/1 219/8/1
f 221/5/1 223/6/1 224/7/1 222/8/1
f 223/5/1 225/6/1 226/7/1 224/8/1
f 225/5/1 227/6/1 228/7/1 226/8/1
f 227/5/1 229/6/1 230/7/1 228/8/1
f 231/5/1 232/6/1 206/7/1 233/8/1
f 234/1/1 235/2/1 210/3/1 209/4/1
f 236/5/1 237/6/1 238/7/1 239/8/1
f 240/1/1 241/2/1 212/3/1 211/4/1
f 242/5/1 243/6/1 214/7/1 213/8/1
f 244/1/1 245/2/1 216/3/1 215/4/1
f 246/5/1 247/6/1 231/7/1 248/8/1
f 249/1/1 250/2/1 235/3/1 234/4/1
f 251/1/1 252/2/1 253/3/1 254/4/1
f 252/1/1 255/2/1 256/3/1 253/4/1
f 255/1/1 257/2/1 258/3/1 256/4/1
f 257/1/1 259/2/1 260/3/1 258/4/1
f 259/1/1 261/2/1 262/3/1 260/4/1
f 261/1/1 263/2/1 264/3/1 262/4/1
f 263/1/1 265/2/1 266/3/1 264/4/1
f 265/1/1 267/2/1 268/3/1 266/4/1
f 269/1/1 270/2/1 241/3/1 240/4/1
f 271/5/1 272/6/1 273/7/1 274/8/1
f 272/5/1 275/6/1 242/7/1 273/8/1
f 275/5/1 276/6/1 243/7/1 242/8/1
f 276/5/1 277/6/1 278/7/1 243/8/1
f 277/5/1 279/6/1 280/7/1 278/8/1
f 281/1/1 282/2/1 283/3/1 284/4/1
f 282/1/1 285/2/1 244/3/1 283/4/1
f 285/1/1 286/2/1 245/3/1 244/4/1
f 286/1/1 287/2/1 288/3/1 245/4/1
f 287/1/1 289/2/1 290/3/1 288/4/1
f 291/5/1 292/6/1 246/7/1 293/8/1
f 294/1/1 295/2/1 250/3/1 249/4/1
f 296/1/1 297/2/1 252/3/1 251/4/1
f 297/1/1 298/2/1 255/3/1 252/4/1
f 298/1/1 299/2/1 257/3/1 255/4/1
f 299/1/1 300/2/1 259/3/1 257/4/1
f 300/1/1 301/2/1 261/3/1 259/4/1
f 301/1/1 302/2/1 263/3/1 261/4/1
f 302/1/1 303/2/1 265/3/1 263/4/1
f 303/1/1 304/2/1 267/3/1 265/4/1
f 305/1/1 306/2/1 307/3/1 308/4/1
f 306/1/1 309/2/1 310/3/1 307/4/1
f 311/1/1 312/2/1 270/3/1 269/4/1
f 313/5/1 314/6/1 291/7/1 315/8/1
f 314/5/1 316/6/1 292/7/1 291/8/1
f 316/5/1 317/6/1 318/7/1 292/8/1
f 317/5/1 319/6/1 320/7/1 318/8/1
f 319/5/1 321/6/1 322/7/1 320/8/1
f 321/5/1 323/6/1 324/7/1 322/8/1
f 323/5/1 325/6/1 326/7/1 324/8/1
f 327/1/1 328/2/1 295/3/1 294/4/1
f 329/1/1 330/2/1 305/3/1 331/4/1
f 330/1/1 332/2/1 306/3/1 305/4/1
f 332/1/1 333/2/1 309/3/1 306/4/1
f 333/1/1 334/2/1 335/3/1 309/4/1
f 336/5/1 337/6/1 338/7/1 339/8/1
f 340/1/1 341/2/1 342/3/1 343/4/1
f 341/1/1 344/2/1 345/3/1 342/4/1
f 344/1/1 346/2/1 347/3/1 345/4/1
f 346/1/1 348/2/1 349/3/1 347/4/1
f 348/1/1 350/2/1 351/3/1 349/4/1
f 352/1/1 353/2/1 312/3/1 311/4/1
f 353/1/1 354/2/1 355/3/1 312/4/1
f 354/1/1 356/2/1 357/3/1 355/4/1
f 356/1/1 358/2/1 359/3/1 357/4/1
f 358/1/1 360/2/1 361/3/1 359/4/1
f 360/1/1 362/2/1 363/3/1 361/4/1
f 362/1/1 364/2/1 365/3/1 363/4/1
f 364/1/1 366/2/1 367/3/1 365/4/1
f 366/1/1 368/2/1 369/3/1 367/4/1
f 368/1/1 370/2/1 371/3/1 369/4/1
f 370/1/1 372/2/1 373/3/1 371/4/1
f 372/1/1 374/2/1 375/3/1 373/4/1
f 374/1/1 376/2/1 377/3/1 375/4/1
f 376/1/1 378/2/1 379/3/1 377/4/1
f 378/1/1 380/2/1 381/3/1 379/4/1
f 380/1/1 382/2/1 383/3/1 381/4/1
f 382/1/1 384/2/1 385/3/1 383/4/1
f 384/1/1 386/2/1 387/3/1 385/4/1
f 386/5/1 388/6/1 389/7/1 387/8/1
f 388/5/1 390/6/1 391/7/1 389/8/1
f 390/5/1 392/6/1 393/7/1 391/8/1
f 392/5/1 394/6/1 395/7/1 393/8/1
f 394/5/1 396/6/1 397/7/1 395/8/1
f 396/5/1 398/6/1 399/7/1 397/8/1
f 398/5/1 400/6/1 401/7/1 399/8/1
f 400/5/1 402/6/1 403/7/1 401/8/1
f 402/5/1 404/6/1 313/7/1 403/8/1
f 404/5/1 405/6/1 314/7/1 313/8/1
f 405/5/1 406/6/1 316/7/1 314/8/1
f 406/5/1 407/6/1 317/7/1 316/8/1
f 407/5/1 408/6/1 319/7/1 317/8/1
f 408/5/1 409/6/1 321/7/1 319/8/1
f 409/5/1 410/6/1 323/7/1 321/8/1
f 410/5/1 411/6/1 325/7/1 323/8/1
f 411/5/1 412/6/1 327/7/1 325/8/1
f 412/1/1 413/2/1 328/3/1 327/4/1
f 414/1/1 415/2/1 329/3/1 416/4/1
f 415/1/1 417/2/1 330/3/1 329/4/1
f 417/1/1 418/2/1 332/3/1 330/4/1
f 418/1/1 419/2/1 333/3/1 332/4/1
f 419/1/1 420/2/1 334/3/1 333/4/1
f 420/1/1 421/2/1 422/3/1 334/4/1
f 423/1/1 424/2/1 341/3/1 340/4/1
f 424/1/1 425/2/1 344/3/1 341/4/1
f 425/1/1 426/2/1 346/3/1 344/4/1
f 426/1/1 427/2/1 348/3/1 346/4/1
f 427/1/1 428/2/1 350/3/1 348/4/1
f 429/1/1 430/2/1 431/3/1 432/4/1
f 430/1/1 433/2/1 434/3/1 431/4/1
f 435/1/1 436/2/1 414/3/1 437/4/1
f 436/1/1 438/2/1 415/3/1 414/4/1
f 438/1/1 439/2/1 417/3/1 415/4/1
f 439/1/1 440/2/1 418/3/1 417/4/1
f 440/1/1 441/2/1 419/3/1 418/4/1
f 441/1/1 442/2/1 420/3/1 419/4/1
f 442/1/1 443/2/1 421/3/1 420/4/1
f 443/1/1 444/2/1 445/3/1 421/4/1
f 446/1/1 447/2/1 424/3/1 423/4/1
f 447/1/1 448/2/1 425/3/1 424/4/1
f 448/1/1 449/2/1 426/3/1 425/4/1
f 449/1/1 450/2/1 427/3/1 426/4/1
f 450/1/1 451/2/1 428/3/1 427/4/1
f 452/1/1 453/2/1 429/3/1 454/4/1
f 455/1/1 456/2/1 457/3/1 433/4/1
f 458/1/1 459/2/1 435/3/1 460/4/1
f 459/1/1 461/2/1 436/3/1 435/4/1
f 461/1/1 462/2/1 438/3/1 436/4/1
f 462/1/1 463/2/1 439/3/1 438/4/1
f 463/1/1 464/2/1 440/3/1 439/4/1
f 464/1/1 465/2/1 441/3/1 440/4/1
f 465/1/1 466/2/1 442/3/1 441/4/1
f 466/1/1 467/2/1 443/3/1 442/4/1
f 467/1/1 468/2/1 444/3/1 443/4/1
f 468/1/1 469/2/1 470/3/1 444/4/1
f 471/5/1 472/6/1 473/7/1 474/8/1
f 475/1/1 476/2/1 453/3/1 452/4/1
f 477/1/1 478/2/1 456/3/1 455/4/1
f 479/1/1 480/2/1 458/3/1 481/4/1
f 480/1/1 482/2/1 459/3/1 458/4/1
f 482/1/1 483/2/1 461/3/1 459/4/1
f 483/1/1 484/2/1 462/3/1 461/4/1
f 484/1/1 485/2/1 463/3/1 462/4/1
f 485/1/1 486/2/1 464/3/1 463/4/1
f 486/1/1 487/2/1 465/3/1 464/4/1
f 487/1/1 488/2/1 466/3/1 465/4/1
f 488/1/1 489/2/1 467/3/1 466/4/1
f 489/1/1 490/2/1 468/3/1 467/4/1
f 490/1/1 491/2/1 469/3/1 468/4/1
f 491/1/1 492/2/1 493/3/1 469/4/1
f 494/5/1 495/6/1 496/7/1 497/8/1
f 498/1/1 499/2/1 500/3/1 476/4/1
f 499/1/1 501/2/1 477/3/1 500/4/1
f 502/1/1 503/2/1 479/3/1 504/4/1
f 503/1/1 505/2/1 480/3/1 479/4/1
f 505/1/1 506/2/1 482/3/1 480/4/1
f 506/1/1 507/2/1 483/3/1 482/4/1
f 507/1/1 508/2/1 484/3/1 483/4/1
f 508/1/1 509/2/1 485/3/1 484/4/1
f 509/1/1 510/2/1 486/3/1 485/4/1
f 510/1/1 511/2/1 487/3/1 486/4/1
f 511/1/1 512/2/1 488/3/1 487/4/1
f 512/1/1 513/2/1 489/3/1 488/4/1
f 513/1/1 514/2/1 490/3/1 489/4/1
f 514/1/1 515/2/1 491/3/1 490/4/1
f 515/1/1 516/2/1 492/3/1 491/4/1
f 516/1/1 517/2/1 518/3/1 492/4/1
f 519/5/1 520/6/1 494/7/1 521/8/1
f 522/1/1 523/2/1 503/3/1 502/4/1
f 523/1/1 524/2/1 505/3/1 503/4/1
f 524/1/1 525/2/1 506/3/1 505/4/1
f 525/1/1 526/2/1 507/3/1 506/4/1
f 526/1/1 527/2/1 508/3/1 507/4/1
f 527/1/1 528/2/1 509/3/1 508/4/1
f 528/1/1 529/2/1 510/3/1 509/4/1
f 529/1/1 530/2/1 511/3/1 510/4/1
f 530/1/1 531/2/1 512/3/1 511/4/1
f 531/1/1 532/2/1 513/3/1 512/4/1
f 532/1/1 533/2/1 514/3/1 513/4/1
f 533/1/1 534/2/1 515/3/1 514/4/1
f 534/1/1 535/2/1 516/3/1 515/4/1
f 535/1/1 536/2/1 517/3/1 516/4/1
f 537/5/1 538/6/1 539/7/1 540/8/1
f 541/5/1 542/6/1 519/7/1 543/8/1
f 544/5/1 545/6/1 546/7/1 547/8/1
f 548/5/1 549/6/1 541/7/1 550/8/1
f 551/5/1 552/6/1 553/7/1 545/8/1
f 554/5/1 555/6/1 548/7/1 556/8/1
f 557/5/1 558/6/1 559/7/1 560/8/1
f 561/5/1 562/6/1 563/7/1 552/8/1
f 564/5/1 565/6/1 554/7/1 566/8/1
f 567/5/1 568/6/1 564/7/1 562/8/1
f 569/5/1 570/6/1 571/7/1 572/8/1
f 570/5/1 573/6/1 574/7/1 571/8/1
f 573/5/1 575/6/1 576/7/1 574/8/1
f 575/5/1 577/6/1 578/7/1 576/8/1
f 577/5/1 579/6/1 580/7/1 578/8/1
f 579/5/1 581/6/1 582/7/1 580/8/1
f 583/5/1 584/6/1 570/7/1 569/8/1
f 584/5/1 585/6/1 573/7/1 570/8/1
f 585/5/1 586/6/1 575/7/1 573/8/1
f 586/5/1 587/6/1 577/7/1 575/8/1
f 587/5/1 588/6/1 579/7/1 577/8/1
f 588/5/1 589/6/1 581/7/1 579/8/1
f 590/5/1 591/6/1 592/7/1 593/8/1
f 594/5/1 595/6/1 584/7/1 583/8/1
f 595/5/1 596/6/1 585/7/1 584/8/1
f 596/5/1 597/6/1 586/7/1 585/8/1
f 597/5/1 598/6/1 587/7/1 586/8/1
f 598/5/1 599/6/1 588/7/1 587/8/1
f 599/5/1 600/6/1 589/7/1 588/8/1

